<svg xmlns="http://www.w3.org/2000/svg" viewBox="0 0 512 512" width="512" height="512">
  <defs>
    <linearGradient id="grad1" x1="0%" y1="0%" x2="100%" y2="100%">
      <stop offset="0%" style="stop-color:#667eea;stop-opacity:1" />
      <stop offset="100%" style="stop-color:#764ba2;stop-opacity:1" />
    </linearGradient>
  </defs>
  
  <!-- Background -->
  <rect width="512" height="512" rx="100" fill="url(#grad1)"/>
  
  <!-- Roulette wheel outer circle -->
  <circle cx="256" cy="256" r="180" fill="#1a1a1a" stroke="#fff" stroke-width="8"/>
  
  <!-- Roulette wheel inner circle -->
  <circle cx="256" cy="256" r="140" fill="#2d2d2d" stroke="#fff" stroke-width="4"/>
  
  <!-- Roulette sections (simplified) -->
  <path d="M 256 256 L 256 116 A 140 140 0 0 1 356 176 Z" fill="#ff0000"/>
  <path d="M 256 256 L 356 176 A 140 140 0 0 1 396 256 Z" fill="#000000"/>
  <path d="M 256 256 L 396 256 A 140 140 0 0 1 356 336 Z" fill="#ff0000"/>
  <path d="M 256 256 L 356 336 A 140 140 0 0 1 256 396 Z" fill="#000000"/>
  <path d="M 256 256 L 256 396 A 140 140 0 0 1 156 336 Z" fill="#ff0000"/>
  <path d="M 256 256 L 156 336 A 140 140 0 0 1 116 256 Z" fill="#000000"/>
  <path d="M 256 256 L 116 256 A 140 140 0 0 1 156 176 Z" fill="#ff0000"/>
  <path d="M 256 256 L 156 176 A 140 140 0 0 1 256 116 Z" fill="#000000"/>
  
  <!-- Center circle -->
  <circle cx="256" cy="256" r="40" fill="#00ff00" stroke="#fff" stroke-width="3"/>
  
  <!-- Center zero -->
  <text x="256" y="276" font-family="Arial, sans-serif" font-size="48" font-weight="bold" fill="#fff" text-anchor="middle">0</text>
</svg>
